<mxfile host="app.diagrams.net" modified="2023-10-18T13:09:36.048Z" agent="Mozilla/5.0 (X11; Linux x86_64) AppleWebKit/537.36 (KHTML, like Gecko) Chrome/116.0.0.0 Safari/537.36" version="22.0.4" etag="bxD4tzpAsTTisIuo3tm8" type="github">
  <diagram name="PÃ¡gina-1" id="R38-7im0Buab1lVRMTEU">
    <mxGraphModel>
      <root>
        <mxCell id="0" />
        <mxCell id="1" parent="0" />
      </root>
    </mxGraphModel>
  </diagram>
</mxfile>
